<svg xmlns="http://www.w3.org/2000/svg" viewBox="0 0 314 314"><path d="M307 27.527H7a7 7 0 00-7 7v244.945a7 7 0 007 7h300a7 7 0 007-7V34.527a7 7 0 00-7-7zm-56.655 14v133.296h-28.582V41.527h28.582zM99.237 188.823a7 7 0 007-7V41.527h22.471v140.296a7 7 0 007 7H150v83.649H84.946v-83.649h14.291zm64.763 0h14.292a7 7 0 007-7V41.527h22.471v140.296a7 7 0 007 7h14.291v83.649H164v-83.649zm7.292-147.296v133.296h-28.584V41.527h28.584zm-79.055 0v133.296H63.655V41.527h28.582zm-78.237 0h35.655v140.296a7 7 0 007 7h14.291v83.649H14V41.527zm286 230.946h-56.946v-83.649h14.291a7 7 0 007-7V41.527H300v230.946z"/></svg>